HIERARCHY
ROOT hips
{
  OFFSET 0 10.074487846421558 1.314567655973056
  CHANNELS 6 Xposition Yposition Zposition Yrotation Xrotation Zrotation
  JOINT spine
  {
    OFFSET -7.042773748992335e-31 0.5690686926897363 0
    CHANNELS 3 Yrotation Xrotation Zrotation
    JOINT chest
    {
      OFFSET 0 1.2435964857087873 0
      CHANNELS 3 Yrotation Xrotation Zrotation
      JOINT upperChest
      {
        OFFSET 0 1.194994586872362 0
        CHANNELS 3 Yrotation Xrotation Zrotation
        JOINT neck
        {
          OFFSET 0 1.515103653293861 0
          CHANNELS 3 Yrotation Xrotation Zrotation
          JOINT head
          {
            OFFSET 0 0.8111851616465653 0
            CHANNELS 3 Yrotation Xrotation Zrotation
            JOINT leftEye
            {
              OFFSET 0.27141371691966987 0.7490044407698551 0.18219031050045686
              CHANNELS 3 Yrotation Xrotation Zrotation
              End Site
              {
                OFFSET 0.27141371691966987 0.7490044407698551 0.18219031050045686
              }
            }
            JOINT rightEye
            {
              OFFSET -0.2714136877644943 0.7490044019380786 0.18219040411850668
              CHANNELS 3 Yrotation Xrotation Zrotation
              End Site
              {
                OFFSET -0.2714136877644943 0.7490044019380786 0.18219040411850668
              }
            }
          }
        }
        JOINT leftShoulder
        {
          OFFSET 0.4137993136083964 1.1593397335613034 0
          CHANNELS 3 Yrotation Xrotation Zrotation
          JOINT leftUpperArm
          {
            OFFSET 1.0096991868951026 0 0
            CHANNELS 3 Yrotation Xrotation Zrotation
            JOINT leftLowerArm
            {
              OFFSET 2.418380967671622 0 0
              CHANNELS 3 Yrotation Xrotation Zrotation
              JOINT leftHand
              {
                OFFSET 2.361538296260114 0 0
                CHANNELS 3 Yrotation Xrotation Zrotation
                JOINT leftIndexProximal
                {
                  OFFSET 0.7243699271447109 0.08118285989887508 0.2022042461579805
                  CHANNELS 3 Yrotation Xrotation Zrotation
                  JOINT leftIndexIntermediate
                  {
                    OFFSET 0.36553107045252053 -0.010567764853200323 -0.014102670024158437
                    CHANNELS 3 Yrotation Xrotation Zrotation
                    JOINT leftIndexDistal
                    {
                      OFFSET 0.22505120770060527 -0.007821041598631284 -0.007511611613336286
                      CHANNELS 3 Yrotation Xrotation Zrotation
                      End Site
                      {
                        OFFSET 0.22505120770060527 -0.007821041598631284 -0.007511611613336286
                      }
                    }
                  }
                }
                JOINT leftLittleProximal
                {
                  OFFSET 0.6721063881632002 0.08118279568569564 -0.3209324945517917
                  CHANNELS 3 Yrotation Xrotation Zrotation
                  JOINT leftLittleIntermediate
                  {
                    OFFSET 0.34587329423120616 5.3042709780015684e-8 -5.929537746918179e-8
                    CHANNELS 3 Yrotation Xrotation Zrotation
                    JOINT leftLittleDistal
                    {
                      OFFSET 0.1992782500022232 0.0030983716482184676 0.0038310952896712935
                      CHANNELS 3 Yrotation Xrotation Zrotation
                      End Site
                      {
                        OFFSET 0.1992782500022232 0.0030983716482184676 0.0038310952896712935
                      }
                    }
                  }
                }
                JOINT leftMiddleProximal
                {
                  OFFSET 0.7301229696860206 0.08118412848995638 0.022516891543707507
                  CHANNELS 3 Yrotation Xrotation Zrotation
                  JOINT leftMiddleIntermediate
                  {
                    OFFSET 0.4076277831942017 -0.000001240188283180288 -1.6203245635504349e-7
                    CHANNELS 3 Yrotation Xrotation Zrotation
                    JOINT leftMiddleDistal
                    {
                      OFFSET 0.2514739255593972 0.0000013850839168938478 -1.8644847207816007e-8
                      CHANNELS 3 Yrotation Xrotation Zrotation
                      End Site
                      {
                        OFFSET 0.2514739255593972 0.0000013850839168938478 -1.8644847207816007e-8
                      }
                    }
                  }
                }
                JOINT leftRingProximal
                {
                  OFFSET 0.7218060861525873 0.08118280646416753 -0.1494689818508163
                  CHANNELS 3 Yrotation Xrotation Zrotation
                  JOINT leftRingIntermediate
                  {
                    OFFSET 0.3781267508900358 0.000001373626195677602 -1.4143108284514483e-7
                    CHANNELS 3 Yrotation Xrotation Zrotation
                    JOINT leftRingDistal
                    {
                      OFFSET 0.21814333268795483 -0.0027137626495670197 -0.004991775417842292
                      CHANNELS 3 Yrotation Xrotation Zrotation
                      End Site
                      {
                        OFFSET 0.21814333268795483 -0.0027137626495670197 -0.004991775417842292
                      }
                    }
                  }
                }
                JOINT leftThumbProximal
                {
                  OFFSET 0.10743676110519984 -0.16423092885053192 -0.07708859146227388
                  CHANNELS 3 Yrotation Xrotation Zrotation
                  JOINT leftThumbIntermediate
                  {
                    OFFSET 0.40350402100066307 -0.01735099334274981 0.315629965828783
                    CHANNELS 3 Yrotation Xrotation Zrotation
                    JOINT leftThumbDistal
                    {
                      OFFSET 0.2320014489535681 -0.01842351809041043 0.21271298411519196
                      CHANNELS 3 Yrotation Xrotation Zrotation
                      End Site
                      {
                        OFFSET 0.2320014489535681 -0.01842351809041043 0.21271298411519196
                      }
                    }
                  }
                }
              }
            }
          }
        }
        JOINT rightShoulder
        {
          OFFSET -0.41379931360839656 1.1593397335613034 0
          CHANNELS 3 Yrotation Xrotation Zrotation
          JOINT rightUpperArm
          {
            OFFSET -1.0096991868951024 0 0
            CHANNELS 3 Yrotation Xrotation Zrotation
            JOINT rightLowerArm
            {
              OFFSET -2.4183809676716232 0 0
              CHANNELS 3 Yrotation Xrotation Zrotation
              JOINT rightHand
              {
                OFFSET -2.3615382962601132 0 0
                CHANNELS 3 Yrotation Xrotation Zrotation
                JOINT rightIndexProximal
                {
                  OFFSET -0.7243699271447109 0.08118285989887508 0.2022042461579805
                  CHANNELS 3 Yrotation Xrotation Zrotation
                  JOINT rightIndexIntermediate
                  {
                    OFFSET -0.36553107045252053 -0.010567764853200323 -0.014102670024158437
                    CHANNELS 3 Yrotation Xrotation Zrotation
                    JOINT rightIndexDistal
                    {
                      OFFSET -0.22505120770060527 -0.007821041598631284 -0.007511611613336286
                      CHANNELS 3 Yrotation Xrotation Zrotation
                      End Site
                      {
                        OFFSET -0.22505120770060527 -0.007821041598631284 -0.007511611613336286
                      }
                    }
                  }
                }
                JOINT rightLittleProximal
                {
                  OFFSET -0.6721063881632002 0.08118279568569564 -0.3209324945517917
                  CHANNELS 3 Yrotation Xrotation Zrotation
                  JOINT rightLittleIntermediate
                  {
                    OFFSET -0.34587329423120616 5.3042709780015684e-8 -5.929537746918179e-8
                    CHANNELS 3 Yrotation Xrotation Zrotation
                    JOINT rightLittleDistal
                    {
                      OFFSET -0.1992782500022232 0.0030983716482184676 0.0038310952896712935
                      CHANNELS 3 Yrotation Xrotation Zrotation
                      End Site
                      {
                        OFFSET -0.1992782500022232 0.0030983716482184676 0.0038310952896712935
                      }
                    }
                  }
                }
                JOINT rightMiddleProximal
                {
                  OFFSET -0.7301229696860206 0.08118412848995638 0.022516891543707507
                  CHANNELS 3 Yrotation Xrotation Zrotation
                  JOINT rightMiddleIntermediate
                  {
                    OFFSET -0.4076277831942017 -0.000001240188283180288 -1.6203245635504349e-7
                    CHANNELS 3 Yrotation Xrotation Zrotation
                    JOINT rightMiddleDistal
                    {
                      OFFSET -0.2514739255593972 0.0000013850839168938478 -1.8644847207816007e-8
                      CHANNELS 3 Yrotation Xrotation Zrotation
                      End Site
                      {
                        OFFSET -0.2514739255593972 0.0000013850839168938478 -1.8644847207816007e-8
                      }
                    }
                  }
                }
                JOINT rightRingProximal
                {
                  OFFSET -0.7218060861525873 0.08118280646416753 -0.1494689818508163
                  CHANNELS 3 Yrotation Xrotation Zrotation
                  JOINT rightRingIntermediate
                  {
                    OFFSET -0.3781267508900358 0.000001373626195677602 -1.4143108284514483e-7
                    CHANNELS 3 Yrotation Xrotation Zrotation
                    JOINT rightRingDistal
                    {
                      OFFSET -0.21814333268795483 -0.0027137626495670197 -0.004991775417842292
                      CHANNELS 3 Yrotation Xrotation Zrotation
                      End Site
                      {
                        OFFSET -0.21814333268795483 -0.0027137626495670197 -0.004991775417842292
                      }
                    }
                  }
                }
                JOINT rightThumbProximal
                {
                  OFFSET -0.10743676110519984 -0.16423092885053192 -0.07708859146227388
                  CHANNELS 3 Yrotation Xrotation Zrotation
                  JOINT rightThumbIntermediate
                  {
                    OFFSET -0.40350402100066307 -0.01735099334274981 0.315629965828783
                    CHANNELS 3 Yrotation Xrotation Zrotation
                    JOINT rightThumbDistal
                    {
                      OFFSET -0.2320014489535681 -0.01842351809041043 0.21271298411519196
                      CHANNELS 3 Yrotation Xrotation Zrotation
                      End Site
                      {
                        OFFSET -0.2320014489535681 -0.01842351809041043 0.21271298411519196
                      }
                    }
                  }
                }
              }
            }
          }
        }
      }
    }
  }
  JOINT leftUpperLeg
  {
    OFFSET 0.8487163290887698 -0.43932186100277326 0
    CHANNELS 3 Yrotation Xrotation Zrotation
    JOINT leftLowerLeg
    {
      OFFSET 0 -3.882816707004296 0
      CHANNELS 3 Yrotation Xrotation Zrotation
      JOINT leftFoot
      {
        OFFSET 0 -4.570431027442807 0.004629272230691511
        CHANNELS 3 Yrotation Xrotation Zrotation
        JOINT leftToes
        {
          OFFSET 0 -0.698875637876343 1.214565366696912
          CHANNELS 3 Yrotation Xrotation Zrotation
          End Site
          {
            OFFSET 0 -0.698875637876343 1.214565366696912
          }
        }
      }
    }
  }
  JOINT rightUpperLeg
  {
    OFFSET -0.8487163290887698 -0.43932186100277326 0
    CHANNELS 3 Yrotation Xrotation Zrotation
    JOINT rightLowerLeg
    {
      OFFSET 0 -3.882816707004296 0
      CHANNELS 3 Yrotation Xrotation Zrotation
      JOINT rightFoot
      {
        OFFSET 0 -4.570431027442807 0.004629272230691511
        CHANNELS 3 Yrotation Xrotation Zrotation
        JOINT rightToes
        {
          OFFSET 0 -0.698875637876343 1.214565366696912
          CHANNELS 3 Yrotation Xrotation Zrotation
          End Site
          {
            OFFSET 0 -0.698875637876343 1.214565366696912
          }
        }
      }
    }
  }
}
MOTION
Frames: 4
Frame Time: 0.03333333333333333
-0.2130625694990158 -0.44752232365544486 -0.2290322631597519 3.8451824058635524 -13.430468804447228 -6.070386147563062 2.498395188534693 2.987753985787595 1.8869171023819042 3.7067859416126896 2.2577177779714557 0.9648713066012473 0 0 0 -2.878496533044809 5.485466867688562 0.9838680188061046 -10.527592193282532 -6.373504831177781 3.9012774763849305 0 0 0 0 0 0 -13.98380271142531 0.9479763904431083 -12.662594078158516 -13.274618972328579 1.6537240574700829 -66.56523656378594 -0.6507693301241843 0.00005496466830063311 0.008414005924391373 5.675788503353736 -30.333860619520838 -13.159773490646174 -0.7745470395321022 0.3405015286054291 -7.058398375728931 1.4327243479613658 0.20432105976383882 -16.23307174535022 0.6147589298566094 0.03698904209694962 -6.889770495121732 4.530150374092402 0.22129991998162046 -28.770462109832554 1.6469525583661213 0.2717949237639699 -18.74360284211169 1.5705302021962042 0.24654948569876997 -17.84402272421731 3.290246900119371 0.07651681774703681 -19.94784010014237 1.557973343582794 0.2425105392784151 -17.696654928292677 1.6439605460412894 0.2707936761767656 -18.708310894946653 2.8247989528379343 -0.4217140143902269 -29.326321271777807 2.3740992606757225 0.5829549107847465 -27.589634670788506 2.136721177296356 0.4665945893957081 -24.635890616235177 1.4262848123286564 -9.912387150715533 11.277757173577877 27.13033225942571 12.212272949717644 17.220381197475362 1.7757526914970754 -12.316422244745938 6.609978238583664 13.272069222429348 1.0504604074447983 15.66727819476733 29.14226231152489 12.991003270829749 64.08762722781434 6.9999134970111045 0.00552210831778686 -0.09020113073012812 -1.4113398404737765 -19.13998936986535 5.512824316174023 0.7753152047624569 0.3990448886886649 3.9549100486854414 -1.1002121259677982 0.15740585612641705 16.28526162531323 -0.472622069397007 0.028577435965984298 6.9190692221627605 -5.2671717648762 1.0902431699274213 31.392549979107937 -1.4172524506332607 0.2649092705015393 21.17468572479785 -1.3595144938623687 0.24308748200012076 20.273417788429704 -3.660048058266989 0.24676562583625353 11.273349939237571 -1.0940418317721716 0.15563081407201512 16.191586991204066 -1.1596911811365733 0.17531459431142488 17.19212002659979 -1.4111923732247091 -0.8258131902423441 26.248531353173263 -1.726638810615427 0.4003491663912453 26.10666421653768 -1.5373046309752418 0.3137082339586868 23.067023992770597 -0.5277397437508443 -4.668509472825816 -6.09268171830401 -30.73263557664994 11.246824530866025 -21.67901102471608 -3.5441155909160638 -14.887960588123821 -10.544470754882955 13.831465180588772 -15.03915635994809 11.719391824069007 0.6439080620413883 32.768170627118366 7.588939090255502 -5.521303527142074 -9.766123863394933 -8.847844875934669 2.9672798906708495e-7 -5.80442575202989 0.0000034877864795103527 -11.382165072558957 -0.5223287161354963 7.147290079638911 -11.646676310269047 28.991405345352273 -10.271788853693801 -11.878943313204621 -15.329009446420573 6.5916752131196885 -0.000007760348510321754 -8.489352173314362 7.83504846198937e-7
-0.20321746170520782 -0.41999069981511283 -0.269051194190979 3.4912288116133685 -12.700257279422432 -5.880802870344348 2.4978183108516325 3.262742168170714 1.985868095187895 3.6387552838513866 2.5124639679312186 1.1199226920424943 0 0 0 -2.7125896620390146 5.227255078890546 1.2567961641160004 -10.166020661771578 -7.028565744756167 4.285227475031013 0 0 0 0 0 0 -14.357439901155516 0.9583813823124633 -12.59941132098564 -14.602412663898063 2.0587806994514932 -68.30287469307517 -0.15670125246535493 -0.000002921791673466633 0.0020146417097898343 6.091641446498336 -30.877999079049037 -12.68709804622736 0.1605180054866119 0.7542563096631459 -9.390675359036601 1.4499411500768407 0.2093523939870902 -16.433576544967618 0.6325268160474188 0.03917658074971049 -7.089851137448263 5.0241118318818065 0.6176126062936232 -29.8423710325285 1.6286014581236974 0.2656149753440835 -18.527093691622895 1.55196563771977 0.24060631363912396 -17.626177599696998 3.7645707568768434 0.23126424318641162 -21.944025469265817 1.5767968994605979 0.2485711071616743 -17.91759337987234 1.6627291606423484 0.27718419162918717 -18.92985978814809 3.084030562159366 -0.3111105089826731 -30.141875813086163 2.355241960640195 0.5731432182182632 -27.352140862415425 2.1161531565537564 0.4572172887039969 -24.383384249342026 2.9822773317627775 -5.385373727394463 8.564760546239537 26.403495170479548 11.151750406078193 20.517631163109513 3.142936643376567 -13.28083208244747 7.523911131708129 13.181497276988217 1.0224016684024537 15.840868094903062 28.058439912239393 12.969053686681121 64.78378423288687 6.775979974313586 0.005181659404751708 -0.087334937315672 -1.4349496291124566 -18.89487251578599 3.2333045362704014 2.198214098948331 0.5310219932414131 -0.5111988051537757 -1.099886552407875 0.1573322445521969 16.280378431047243 -0.47273892570258935 0.02858976565958966 6.920885578119075 -4.749683916697639 0.7299033085188776 25.641677670022112 -1.3976252706139267 0.25738784675238935 20.867840627740385 -1.3397731545686873 0.2358381066920919 19.96646141639736 -3.1496458364476663 0.12931761547382356 7.502983796041063 -1.097798772727809 0.15672130051281283 16.248515888480096 -1.1634559854937514 0.1764867643506366 17.24972886246233 -0.7248610653141165 -0.9150578915114367 22.53993757372191 -1.6397635751776227 0.359083084437615 24.702765313086 -1.4484789939803415 0.27716997079548783 21.664516115849732 -0.5761711870759396 -3.3497817861233945 -6.291333317843655 -30.963083341566264 12.069805095458745 -19.54987567942528 -2.8990926270631596 -14.514985441303496 -10.71015581147225 13.891416968034724 -15.219427734248338 11.350234463028345 0.6522757624868318 31.397038747882135 7.2467125200288525 -5.334087072713414 -8.75275766219232 -8.661934590700561 0.0000015301787970853805 -5.763010525373197 9.124538144822604e-7 -11.360644193186491 -1.0836899182826025 7.215005615268679 -11.54312068736876 27.84817125176491 -10.276251717388147 -11.471036045087105 -14.432915670731562 6.330676455741243 -0.000006646441480035769 -8.467119418227538 0.0000033893374498546945
-0.18754281103610992 -0.37531773381169486 -0.31523314118385315 2.944866565199591 -11.61100135990038 -5.644020221545142 2.4730105317503943 3.5510065088143508 2.1102329097454637 3.487434661204266 2.7712091266340453 1.320680115568513 0 0 0 -2.4538595811727277 5.021510741744785 1.6776178758073024 -9.608531760426667 -7.914273044427113 4.936607757432317 0 0 0 0 0 0 -14.86903950548725 0.990869288647834 -12.366968890679784 -16.185896299086714 2.3697243193464694 -70.5879944134504 -0.000008268319359669218 0.0000022049005513742444 5.495025494280803e-7 6.328229202651121 -31.11162584212765 -11.25586194379948 0.6114991805423283 1.0697073328668552 -10.162544088053755 1.4713269734060594 0.21573266166741834 -16.682960090746015 0.6545933690959835 0.04195504103574783 -7.33860428343561 5.589739447143874 1.0928057029130216 -30.75001047989663 1.585967067676023 0.2515380521990947 -18.025352303670832 1.5088989294241109 0.22713618789614007 -17.12175127327829 4.544873093109092 0.5486313760986402 -22.58526398613095 1.5927164562859695 0.2537376612991282 -18.10467467889392 1.6787266779429517 0.282709640500285 -19.1189458665462 3.281013466725298 -0.17431177913543616 -29.52075803560861 2.266179134405457 0.5281656782141843 -26.237599570592256 2.023219147680195 0.4162009972088028 -23.248282580067638 4.322272007739369 1.999333157092857 4.416682771863414 25.226543470186378 9.825502970467063 25.155037860811525 4.995281860717499 -14.539128512277273 8.304137738622746 12.957613225765119 0.9913598550014099 16.0557399565216 25.526114255795946 12.588568580928264 64.89051069175747 6.3499189304454475 0.004543250575346461 -0.08185391473193952 -1.8441211053428317 -19.895392061287975 5.7578979872670155 3.0079000364993154 0.6810595897928825 -2.627079376425124 -1.095403238954138 0.15602695316876622 16.212201136385275 -0.4682224664864455 0.02803492611359656 6.8542766969888405 -4.41508574486416 0.5284231552742935 21.225221720894414 -1.373406009321669 0.24823306298167852 20.489874756141855 -1.3153935356021274 0.22707959826709448 19.588250386213797 -2.6312679056195503 0.0642873080919826 5.49881283686668 -1.1044791952545239 0.1586796245513685 16.350245973813713 -1.170192001834369 0.17858174817269148 17.352795338753676 -0.13063301469193983 -0.9745751832165246 19.951766925328553 -1.6436413953142333 0.36087868589690664 24.76499179527053 -1.4525570375066064 0.2787919196889305 21.728526311109484 -0.29960772453705087 -3.0494696980093163 -7.236113743739075 -31.06616525359854 12.55351234083839 -18.310232234316672 -2.5441922476847925 -14.213205342530339 -10.533572730892267 14.026375998019708 -15.298931965473313 10.853821598747565 0.5549351657568394 29.13715759277465 6.70526148135368 -4.96722523670877 -7.231797129219339 -8.373326700943077 -0.0000016436127788114129 -5.650862164126459 -5.2133025136929664e-8 -11.2797131707546 -1.6595144226337053 7.321495536744508 -11.377422101906907 25.845623362449448 -10.169437330893203 -10.827275010490265 -13.070382145866935 5.920960553437055 -5.407202741907896e-7 -8.412738477741247 0.0000034520528663512056
-0.17910322546958923 -0.344056289719898 -0.3343782424926758 2.55129339377112 -10.867618410590396 -5.480862444222988 2.4598082878211738 3.6898352732241517 2.1682604646375068 3.4074421894455136 2.8832654457956908 1.4106326298859007 0 0 0 -2.2877770972312703 4.950786709572402 1.9133979794790006 -9.282857827919523 -8.381694577184449 5.380916844402006 0 0 0 0 0 0 -15.019994978918985 1.0021416594290542 -12.290254116155692 -17.02826888921665 3.008995925741896 -71.38580079708977 0 0 0 5.952402116683283 -29.69170431734974 -10.112963412572928 0.2711068575368789 0.863962504364922 -9.445827527413828 1.4760476094908137 0.21714658761516262 -16.738003719982046 0.6595091012476025 0.04259552152218126 -7.393978640593387 5.476719066715386 1.0116608912316383 -30.170268822110216 1.5734681276738338 0.24748931245473677 -17.87844213622296 1.4963979167713275 0.2232952040105348 -16.97571016292807 4.384797390792364 0.48078767397216615 -21.902176857606406 1.5930480938566554 0.25386105948207477 -18.108559342851024 1.6789838634110474 0.2827920573411447 -19.12205259741547 3.169279931555657 -0.19191777560281573 -28.317528419901606 2.224870905879852 0.5080249213534042 -25.72425723550181 1.9809121403847905 0.39825403502576706 -22.73486112944687 4.121993147390721 2.404828448320183 4.0538938449012 25.054334211860915 9.681354019645992 25.72223291489715 5.273293988473464 -14.748044000993987 8.450371785017351 13.000718662481699 0.9852528641032957 16.085008908346182 25.26042332971186 12.981463392249044 64.78838239333564 6.239695495406746 0.004401731756705779 -0.08044160777032262 -2.219972327611374 -20.664380643567515 9.043400169502815 2.600640179832656 0.5432080664426283 -0.9136990098175443 -1.101027447027607 0.15766110873102696 16.297695624923698 -0.4739577841331642 0.028740193257767853 6.9387582371170105 -4.522383827028275 0.5936510172626824 22.642433892907025 -1.3540472299928599 0.24107093068985114 20.188425703343952 -1.2959293454722483 0.2202015853945712 19.286838463291065 -2.7452611096730672 0.0762079715263114 7.152305334452867 -1.1130471193448181 0.1612043631225305 16.480618105952164 -1.1786998633448913 0.18125099125638466 17.48309102029824 -0.39788864071883945 -0.9409948818469749 20.92237184063508 -1.6456683701692736 0.3618160946420624 24.797597012012247 -1.454562676240692 0.27959194177388846 21.760052414268376 -0.032074925980696424 -2.95727616124881 -6.733441278525944 -31.01365732790508 12.30995206807067 -18.932807732795858 -2.7428147212332155 -14.373172576846969 -10.61067362486073 14.22139470796581 -15.249761068853115 10.612220425971357 0.4460213544670164 27.50621918357626 6.236614146300319 -4.752638053417002 -6.244928519881311 -8.222590325019594 -0.000009477989581494601 -5.5644115317115395 0.0000027479189136049982 -11.214449429266422 -1.904967553753383 7.380830935337235 -11.270218232307414 24.354331901915888 -10.050926585256398 -10.360361155206345 -12.171958588182024 5.638477098802262 0.000006237828068065396 -8.412043714805046 -7.96762807006789e-7
